<?xml version="1.0" encoding="UTF-8"?>
<svg xmlns="http://www.w3.org/2000/svg" width="126" height="53" viewBox="0 0 126 53" fill="none">
  <path d="M118.444 39.0961C115.871 41.462 112.741 42.5216 108.908 42.2424C101.406 41.6964 95.7812 35.2468 95.7812 26.394C95.7812 16.8007 102.401 10.8348 109.74 10.8447C114.681 10.8522 117.373 12.7744 118.486 13.7292L118.549 11.7672H125.996V53.0024H118.441V39.0986L118.444 39.0961ZM111.105 35.1396C115.498 35.1396 118.869 31.5022 118.869 26.5211C118.869 21.54 115.392 17.9674 111.052 17.9674C106.713 17.9674 103.24 21.5175 103.24 26.5535C103.24 31.5895 106.607 35.1396 111.108 35.1396H111.105Z" fill="#231F20"/>
  <path fill-rule="evenodd" clip-rule="evenodd" d="M69.6484 1.64258H87.6488V6.89047H69.6484V1.64258ZM78.651 42.2398C87.3928 42.2398 94.4816 35.2268 94.4816 26.5784C94.4816 17.93 87.3928 10.917 78.651 10.917C69.9091 10.917 62.8203 17.93 62.8203 26.5784C62.8203 35.2268 69.9091 42.2398 78.651 42.2398ZM69.9998 26.5784C69.9998 21.8516 73.873 18.0197 78.651 18.0197C83.4289 18.0197 87.3021 21.8516 87.3021 26.5784C87.3021 31.3053 83.4289 35.1371 78.651 35.1371C73.873 35.1371 69.9998 31.3053 69.9998 26.5784Z" fill="#950639"/>
  <path d="M34.8203 11.7676H42.9624C45.4799 18.6036 47.569 25.1753 50.0336 32.5971H50.1419C52.6065 25.1778 54.6956 18.606 57.1601 11.7676H65.088L54.5872 41.3428H45.427L34.8203 11.7676Z" fill="#231F20"/>
  <path d="M15.8584 0H25.1798L41.0382 41.34H32.5206L28.3424 30.5275H12.3782C10.9847 34.1325 9.64656 37.735 8.253 41.34H0L15.8584 0ZM25.5024 22.8963C24.2172 19.5581 22.6094 15.265 20.4674 9.4861H20.3591C18.9655 13.2481 17.0906 18.1246 15.2158 22.8963H25.5024Z" fill="#231F20"/>
</svg>